<svg xmlns="http://www.w3.org/2000/svg" viewBox="0 0 742.47 770.1"><title>Recurso 1</title><g id="Capa_2" data-name="Capa 2"><g id="Inicio"><path d="M740.78,297.25C721.32,113.08,539.72-19.23,335.94,2.29S-17.76,191.14,1.7,375.32C18.64,535.75,158.78,656.26,329.26,670.58l-1.33-31.09C173.78,625,47.86,516.22,32.63,372.05,15,205,152.5,53,339.21,33.23s353,100.19,370.63,267.29C722.51,420.44,655,532.16,546.91,593.17l13.34,28.37C679.91,554.81,754.86,430.6,740.78,297.25Z"/><path d="M545.93,331.1c15,17.46,29.73,38.79,51.71,48,20.19,8.43,45.3,3.82,58.37-14.44,14.25-19.9-15.33-44-29.66-24C613,359.35,584,317.06,576.66,308.5c-15.88-18.52-46.77,3.91-30.73,22.6Z"/><path d="M320.42,277c-1.94-18.35,10-34.66,26.63-36.42.54-.06,1,.19,1.55.17-7-29.34-24.15-51.51-45-54.31-28.34-3.81-52.63,29.4-54.25,74.17s20,84.14,48.34,87.94c21,2.83,39.81-14.8,48.76-42.36C333.1,303.84,322.05,292.46,320.42,277Z"/><path d="M486.3,258.72c-1.78-16.83,8.32-31.39,22.82-35.14-12.74-37.85-40.67-60.82-65.57-51.91-26.91,9.64-39.86,52.67-28.9,96.11s41.63,70.84,68.55,61.2c14.83-5.31,25.2-20.93,29.88-41C499.4,285.94,488,274.45,486.3,258.72Z"/><path d="M295.54,500.76c21.59,105.17,1.66,297.55,167.8,265.86C607.56,739.1,563.27,545,527.49,450.21c-8.66-22.95-44.21-9.07-35.51,14,28,74.25,80.07,287.66-68,266.38-96.13-13.81-75.89-162.69-90.49-233.79-4.89-23.83-42.87-20.06-37.93,4Z"/><path d="M390.42,507.28c12.14,30,9.83,63.06,17.13,94.26,5.51,23.59,43.52,19.88,37.93-4-8.11-34.68-6-70.73-19.55-104.2-9.19-22.71-44.75-8.88-35.51,13.95Z"/><path d="M193.21,432.73c63.16,72.51,133.81,91.4,228.62,72.5,78.06-15.57,147.24-51.57,180.09-127.07,9.8-22.54-25-38.22-34.78-15.69-55.69,128-256.63,147-343.19,47.66-16-18.38-46.91,4-30.74,22.6Z"/></g></g></svg>