<svg xmlns="http://www.w3.org/2000/svg" viewBox="0 0 64.56 64.57"><title>Recurso 4</title><g id="Capa_2" data-name="Capa 2"><g id="Contacto"><path d="M64.4,19a23.65,23.65,0,0,0-1.5-7.83,15.86,15.86,0,0,0-3.74-5.73A15.91,15.91,0,0,0,53.45,1.7,23.82,23.82,0,0,0,45.61.2C42.16,0,41.06,0,32.29,0S22.43,0,19,.19a23.65,23.65,0,0,0-7.83,1.5A15.84,15.84,0,0,0,5.42,5.42,15.94,15.94,0,0,0,1.7,11.14,23.7,23.7,0,0,0,.2,19C0,22.43,0,23.53,0,32.29S0,42.16.19,45.6a23.65,23.65,0,0,0,1.5,7.83,16.49,16.49,0,0,0,9.45,9.45A23.45,23.45,0,0,0,19,64.38c3.45.16,4.54.19,13.31.19s9.86,0,13.31-.19a23.39,23.39,0,0,0,7.83-1.5,16.5,16.5,0,0,0,9.45-9.45,23.7,23.7,0,0,0,1.5-7.83c.15-3.44.19-4.54.19-13.31S64.55,22.43,64.4,19ZM58.58,45.35a17.74,17.74,0,0,1-1.11,6,10.7,10.7,0,0,1-6.13,6.13,17.8,17.8,0,0,1-6,1.11c-3.41.15-4.43.19-13,.19s-9.65,0-13-.19a17.8,17.8,0,0,1-6-1.11,10.65,10.65,0,0,1-6.12-6.12,17.8,17.8,0,0,1-1.11-6c-.15-3.4-.19-4.43-.19-13s0-9.65.19-13a17.8,17.8,0,0,1,1.11-6A10,10,0,0,1,9.57,9.57a10,10,0,0,1,3.71-2.4,17.54,17.54,0,0,1,6-1.12c3.41-.15,4.43-.18,13.05-.18s9.65,0,13,.18a17.36,17.36,0,0,1,6,1.12,9.82,9.82,0,0,1,3.71,2.4,10.13,10.13,0,0,1,2.41,3.71,17.86,17.86,0,0,1,1.11,6c.15,3.41.19,4.43.19,13.05S58.73,41.94,58.58,45.35Z" style="fill:#010101"/><path d="M32.29,15.7A16.59,16.59,0,1,0,48.88,32.29,16.6,16.6,0,0,0,32.29,15.7Zm0,27.35A10.76,10.76,0,1,1,43.05,32.29,10.76,10.76,0,0,1,32.29,43.05Z" style="fill:#010101"/><path d="M53.41,15.05a3.88,3.88,0,1,1-3.87-3.87A3.87,3.87,0,0,1,53.41,15.05Z" style="fill:#010101"/></g></g></svg>