<!-- Generator: Adobe Illustrator 23.0.5, SVG Export Plug-In  -->
<svg version="1.1" xmlns="http://www.w3.org/2000/svg" xmlns:xlink="http://www.w3.org/1999/xlink" x="0px" y="0px" width="100%"
	 height="100%" viewBox="0 0 276.6 276.6" style="enable-background:new 0 0 276.6 276.6;" xml:space="preserve">
<defs>
</defs>
<g id="arrow">
	<polygon points="201.8,138.3 148.2,85.1 148.2,113 74.7,113 74.7,163.6 148.2,163.6 148.2,191.6 	"/>
</g>
<g id='text'>
 	<path d="M145.6,7.1c0.1-4.3-2.5-6.9-6.8-7l-5-0.1l-0.2,13.8l5.5,0.1C143,14,145.5,11.4,145.6,7.1z M135.4,12.2l0.2-10.6l3.3,0.1
		c3.1,0.1,5,2.1,5,5.4c-0.1,3.4-1.9,5.3-4.8,5.3L135.4,12.2z"/>
	<polygon points="157.5,13.7 150,12.8 150.5,8.1 156.5,8.8 156.6,7.5 150.7,6.9 151.2,2.3 158.5,3.1 158.7,1.5 149.6,0.5 
		148.1,14.2 157.4,15.3 	"/>
	<path d="M164.5,16.9c4.4,1,6.1-0.8,6.6-2.9c0.3-1.2-0.1-2.3-0.9-2.9c-0.8-0.6-2.2-1.2-3.5-1.6c-1.1-0.4-2.7-1-3.3-1.5
		c-0.5-0.4-0.7-1-0.5-1.9c0.3-1.5,2.1-2.1,4.3-1.7c2.3,0.5,3.4,1.8,2.9,4.2l1.6,0.3c0.7-3.1-0.4-5.2-4.2-6c-3.2-0.7-5.8,0.5-6.3,2.9
		c-0.3,1.3,0.1,2.3,0.8,2.9c0.6,0.6,2,1.3,3.4,1.7c1.1,0.4,2.6,0.9,3.3,1.4c0.6,0.4,0.9,1,0.7,1.9c-0.3,1.3-1.4,2.3-4.5,1.6
		c-2.9-0.6-3.6-2.2-3.1-4.2l-1.6-0.3C159.5,13.3,160.1,15.9,164.5,16.9z"/>
	<polygon points="181.8,19.9 174.9,17.7 178.6,6 176.9,5.5 172.7,18.7 181.3,21.4 	"/>
	<rect x="179.9" y="15.4" transform="matrix(0.3693 -0.9293 0.9293 0.3693 102.711 183.811)" width="13.8" height="1.8"/>
	<polygon points="200.5,16.6 188.2,22.8 187.7,24 197.2,28.6 197.9,27.1 190.4,23.5 190.4,23.5 202.7,17.4 203.3,16.2 193.8,11.6 
		193.1,13 200.5,16.6 	"/>
	<path d="M200.1,30.2l2.9-2.1l6.1,3.8l-0.6,3.6l1.7,1.1l2.4-14.8l-1.8-1.1l-12.3,8.6L200.1,30.2z M210.8,22.5L210.8,22.5l-1.4,8
		l-5.2-3.3L210.8,22.5z"/>
	<polygon points="216.2,19.2 214.6,18.2 211.5,19.8 212.7,20.5 	"/>
	<path d="M217,41.9l3-3.5l3.1,2.7c2.3,2,4.8,2,6.8-0.2c1.9-2.2,1.6-4.8-1-7l-4.2-3.6l-9,10.5L217,41.9z M225,32.7l2.8,2.4
		c1.8,1.5,2,3.2,0.7,4.8c-1.4,1.6-3,1.6-4.6,0.2l-3-2.6L225,32.7z"/>
	<path d="M225.1,49l3.4-1.3l4.9,5.2l-1.5,3.3l1.4,1.5l6-13.8l-1.4-1.5l-14,5.3L225.1,49z M237.3,44.2L237.3,44.2l-3.4,7.4l-4.2-4.4
		L237.3,44.2z"/>
	<path d="M235.6,60.7l4.6-3.5l2.6,3.5c1.4,1.8,1,2.9-0.2,3.8l-2.7,2l1.1,1.4l2.7-2c1.4-1,2-2.3,1-4l0,0c1.3,1.4,2.8,1.2,4.3,0.1
		c1.9-1.4,2.1-3.7,0-6.5l-3.5-4.6l-11,8.3L235.6,60.7z M245.3,53.3l2.4,3.2c1.4,1.9,1.3,3.3,0.1,4.3c-1.3,1-2.7,0.8-4.2-1.2
		l-2.4-3.1L245.3,53.3z"/>
	<path d="M243,70.8l3.6-0.5l3.6,6.2l-2.2,2.9l1,1.8l8.9-12.1l-1.1-1.8l-14.9,2L243,70.8z M256,68.9L256,68.9l-4.9,6.5l-3.1-5.3
		L256,68.9z"/>
	<polygon points="252.6,89 264.3,84.4 264.3,84.4 255.6,96.7 256.4,98.6 269.3,93.6 268.7,92 258,96.2 258,96.2 265.9,85 
		264.9,82.3 252,87.4 	"/>
	<path d="M257.5,102.3l3.6,0.5l1.8,6.9l-2.9,2.1l0.5,2l11.9-9.1l-0.5-2l-14.8-2.2L257.5,102.3z M270.6,104.1L270.6,104.1l-6.5,4.8
		l-1.5-5.9L270.6,104.1z"/>
	<polygon points="261.4,120.3 276,123.9 275.7,122 263,119.2 263,119.1 274.2,112.5 273.9,110.6 261.1,118.3 	"/>
	<polygon points="262.8,137.3 264.4,137.2 264,129.7 268.7,129.4 269,135.4 270.3,135.4 270,129.4 274.7,129.2 275,136.5 
		276.6,136.5 276.2,127.3 262.4,128 	"/>
	<path d="M269.7,139c-4.3-0.2-7.1,2.5-7.4,6.4c-0.2,2.7,1,4.3,2.5,4.8l0,0c-1-0.1-2-0.2-2.5-0.3l-0.1,1.7l6.6,0.4l0.4-6.6l-1.3-0.1
		l-0.3,4.8l-0.4,0c-2.1-0.1-3.5-1.9-3.4-4.6c0.2-2.8,2.4-5,5.7-4.8c3.4,0.2,5.5,2.6,5.4,5.5c-0.1,2.5-1.5,4.3-3.7,4.1
		c-0.2,0-0.5,0-0.7-0.1l-0.1,1.6c0.3,0,0.6,0.1,0.8,0.1c3.1,0.2,5.1-2.2,5.3-5.7C276.7,142.4,274,139.2,269.7,139z"/>
	<path d="M261.7,155.3l3.1,1.9l-1.2,7.1L260,165l-0.4,2l14.6-3.3l0.4-2.1l-12.6-8.2L261.7,155.3z M265.9,157.9l6.9,4.3l0,0l-7.9,1.6
		L265.9,157.9z"/>
	<path d="M258.5,170.6l5.5,1.6l-1.2,4.1c-0.7,2.2-1.7,2.5-3.2,2.1l-3.2-1l-0.5,1.7l3.2,1c1.7,0.5,3,0.2,3.8-1.6l0,0
		c-0.3,1.9,0.7,3,2.4,3.5c2.3,0.7,4.3-0.5,5.2-3.9l1.6-5.5L259,169L258.5,170.6z M265.3,172.7l5,1.5l-1.1,3.8
		c-0.7,2.2-1.9,3.1-3.4,2.6c-1.5-0.5-2.3-1.7-1.6-4.1L265.3,172.7z"/>
	<rect x="255.6" y="189.7" transform="matrix(0.3989 -0.917 0.917 0.3989 -19.4622 350.86)" width="4.7" height="1.2"/>
	<path d="M245.6,201.3c-2,3.4-1,6.9,2.7,9.1c3.7,2.2,7.3,1.2,9.4-2.4l2.6-4.3l-11.9-7L245.6,201.3z M258,204.4l-1.7,2.9
		c-1.6,2.7-4.3,3.4-7.1,1.7c-2.9-1.7-3.7-4.3-2.2-6.8l1.9-3.2L258,204.4z"/>
	<polygon points="235.2,216.5 236.5,217.5 241,211.4 244.8,214.2 241.3,219 242.3,219.8 245.9,215 249.6,217.7 245.2,223.6 
		246.5,224.6 251.9,217.2 240.8,209 	"/>
	<path d="M238.6,223.6c-0.9,0.2-2.1,1.1-3.2,2.1c-0.9,0.8-2.1,1.8-2.9,2.2c-0.7,0.3-1.3,0.3-2-0.3c-1-0.9-1.3-2.4,0.8-4.7
		c2-2.2,3.7-2,5.2-0.6l1.1-1.2c-1.8-1.7-4.4-2.5-7.4,0.8c-3,3.3-2.4,5.7-0.8,7.1c0.9,0.8,2,1.1,3,0.7c0.9-0.4,2.1-1.3,3.2-2.2
		c0.9-0.8,2.2-1.8,2.9-2.1c0.6-0.2,1.2-0.1,1.9,0.5c1.1,1,0.8,2.9-0.7,4.5c-1.6,1.8-3.3,2-5.1,0.4l-1.1,1.2c2.4,2.1,4.7,2.2,7.3-0.6
		c2.2-2.4,2.5-5.3,0.7-6.9C240.5,223.6,239.5,223.4,238.6,223.6z"/>
	<polygon points="217.9,234.1 219,235.3 224.4,230.4 232.6,239.5 233.9,238.3 224.6,228.1 	"/>
	<rect x="218.8" y="234.5" transform="matrix(0.7847 -0.6198 0.6198 0.7847 -102.3761 188.118)" width="1.8" height="13.8"/>
	<polygon points="212.5,253.2 212.4,253.2 213.2,239.4 212.5,238.3 203.8,244.3 204.7,245.6 211.5,241 211.5,241 210.7,254.7 
		211.5,255.8 220.2,249.9 219.3,248.5 	"/>
	<path d="M200.9,246l0.4,3.6L195,253l-2.8-2.3l-1.8,1l11.6,9.5l1.9-1l-1.3-14.9L200.9,246z M202.2,259.1l-6.2-5.3l5.4-2.9
		L202.2,259.1L202.2,259.1z"/>
	<path d="M182.3,254.8l1.5,4.3l-3.8,1.3c-2.9,1-4.1,3.2-3.2,6c0.9,2.7,3.4,3.8,6.5,2.7l5.2-1.8l-4.5-13.1L182.3,254.8z M186.3,266.4
		l-3.5,1.2c-2.2,0.8-3.8,0.1-4.5-1.8c-0.7-2,0.2-3.4,2.2-4.1l3.7-1.3L186.3,266.4z"/>
	<path d="M171.6,261.8l-7,1.7l-2.1-3l-2,0.5l8.9,12.1l2-0.5l2.5-14.8l-1.8,0.4L171.6,261.8z M170.1,271.2L170.1,271.2l-4.7-6.6
		l5.9-1.4L170.1,271.2z"/>
	<path d="M156.8,261.5l0.7,5.7l-4.3,0.5c-2.3,0.3-3-0.6-3.2-2l-0.4-3.3l-1.8,0.2l0.4,3.3c0.2,1.7,1,2.9,2.9,2.9l0,0
		c-1.8,0.5-2.5,1.8-2.2,3.6c0.3,2.4,2.2,3.7,5.6,3.3l5.7-0.7l-1.7-13.7L156.8,261.5z M154.3,274.1c-2.3,0.3-3.6-0.5-3.7-2
		c-0.2-1.6,0.6-2.8,3.1-3.1l3.9-0.5l0.6,5.1L154.3,274.1z"/>
	<path d="M142.9,266.1l-7.2,0.1l-1.4-3.3l-2.1,0l6.1,13.7l2.1,0l5.6-13.9l-1.8,0L142.9,266.1z M139.5,275L139.5,275l-3.2-7.5
		l6.1-0.1L139.5,275z"/>
	<polygon points="121.9,274.4 121.8,274.4 115.6,260.8 113.5,260.4 111.4,274.1 113.1,274.4 114.8,263 114.8,263 120.5,275.5 
		123.3,275.9 125.4,262.3 123.8,262 	"/>
	<path d="M109.7,259.6l-2.2,2.9l-6.9-1.9l-0.4-3.6l-2-0.6l1.9,14.9l2,0.6l9.3-11.7L109.7,259.6z M101.7,270L101.7,270l-0.9-8.1
		l5.9,1.6L101.7,270z"/>
	<polygon points="92.2,253.9 81.8,264.7 83.6,265.4 92.4,255.9 92.5,255.9 92.6,268.9 94.4,269.6 94.1,254.7 	"/>
	<polygon points="76.8,246.6 76,248.1 82.8,251.5 80.6,255.7 75.3,253 74.7,254.1 80,256.9 77.9,261 71.3,257.6 70.6,259 
		78.7,263.2 85.1,250.9 	"/>
	<path d="M71.9,251.8c2.4-3.6,1.4-7.4-1.9-9.6c-2.3-1.5-4.2-1.4-5.5-0.3l0,0c0.6-0.8,1.2-1.6,1.5-2l-1.4-0.9l-3.6,5.5l5.5,3.6
		l0.7-1.1l-4.1-2.7l0.2-0.3c1.1-1.7,3.4-2.1,5.7-0.6c2.3,1.5,3.1,4.6,1.2,7.4c-1.9,2.9-5,3.5-7.4,1.9c-2.1-1.4-2.9-3.5-1.7-5.3
		c0.1-0.2,0.3-0.4,0.4-0.6l-1.4-0.9c-0.2,0.3-0.4,0.5-0.5,0.7c-1.7,2.6-0.7,5.6,2.2,7.5C65.4,256.1,69.5,255.4,71.9,251.8z"/>
	<path d="M61.8,236.7l-3.2,1.7l-5.5-4.6l1.1-3.4l-1.6-1.3l-4.5,14.3l1.6,1.4l13.4-6.8L61.8,236.7z M50.2,242.8L50.2,242.8l2.5-7.7
		l4.7,3.9L50.2,242.8z"/>
	<path d="M50.1,226.2l-4.2,3.9l-3-3.1c-1.6-1.7-1.3-2.8-0.3-3.8l2.4-2.3l-1.2-1.3l-2.4,2.3c-1.3,1.2-1.7,2.5-0.5,4.1l0,0
		c-1.5-1.2-2.9-0.9-4.2,0.3c-1.7,1.6-1.7,3.9,0.7,6.5l3.9,4.2l10.1-9.5L50.1,226.2z M41.2,234.6l-2.7-2.9c-1.6-1.7-1.7-3.2-0.6-4.2
		c1.2-1.1,2.6-1.1,4.3,0.7L45,231L41.2,234.6z"/>
	<rect x="32.8" y="213.5" transform="matrix(0.8037 -0.595 0.595 0.8037 -121.8709 62.2653)" width="1.2" height="4.7"/>
	<path d="M30,199.6c-2-3.5-5.4-4.3-9.2-2.2c-3.7,2.1-4.7,5.7-2.6,9.4l2.5,4.4l12-6.8L30,199.6z M19.5,206c-1.5-2.7-0.8-5.4,2.1-7
		c2.9-1.7,5.5-1.1,7,1.5l1.8,3.2l-9.2,5.2L19.5,206z"/>
	<polygon points="22,183.1 20.6,183.7 23.6,190.7 19.3,192.6 16.9,187.1 15.7,187.6 18.1,193.1 13.8,194.9 10.9,188.1 9.4,188.8 
		13.1,197.2 25.7,191.7 	"/>
	<path d="M12,184.6c1.2-0.4,1.9-1.2,2.2-2.1c0.2-0.9,0.1-2.4-0.2-3.8c-0.2-1.2-0.5-2.7-0.4-3.6c0.1-0.8,0.4-1.3,1.3-1.5
		c1.3-0.4,2.7,0.1,3.7,3.1c0.9,2.8-0.1,4.2-2,4.8l0.5,1.6c2.4-0.8,4.3-2.6,3-6.8c-1.4-4.3-3.7-4.9-5.7-4.3c-1.2,0.4-1.9,1.2-2.1,2.2
		c-0.2,1,0.1,2.5,0.3,3.8c0.2,1.2,0.5,2.8,0.3,3.6c-0.1,0.6-0.5,1.1-1.3,1.4c-1.4,0.5-2.9-0.8-3.6-2.9c-0.7-2.3-0.1-3.9,2.2-4.6
		l-0.5-1.6c-3,1-4.3,3-3.1,6.6C7.4,183.7,9.7,185.3,12,184.6z"/>
	<polygon points="15.5,159.3 13.9,159.6 15.4,166.7 3.5,169.2 3.9,171 17.4,168.1 	"/>
	<rect x="1.4" y="156.2" transform="matrix(0.9899 -0.1417 0.1417 0.9899 -22.1847 2.7592)" width="13.8" height="1.8"/>
	<polygon points="1.8,145 1.8,145 13.3,152.6 14.5,152.5 13.8,142 12.2,142.1 12.8,150.3 12.8,150.3 1.3,142.8 0,142.9 0.7,153.3 
		2.3,153.2 	"/>
	<path d="M13.8,138.6l-3.3-1.5l0.3-7.2l3.4-1.2l0.1-2.1l-14,5.3l-0.1,2.1l13.6,6.4L13.8,138.6z M9.2,136.6l-7.4-3.3l0,0l7.6-2.7
		L9.2,136.6z"/>
	<path d="M15.5,118.1l-4.5-0.9l0.8-4c0.6-3-0.7-5.2-3.6-5.7c-2.8-0.5-4.9,1-5.6,4.3l-1,5.4l13.6,2.6L15.5,118.1z M10.4,113.1
		l-0.7,3.9l-6.2-1.2l0.7-3.6c0.4-2.3,1.8-3.4,3.8-3C10,109.6,10.8,111,10.4,113.1z"/>
	<path d="M17.6,107.6l-2.8-2.3l2-6.9l3.6-0.3l0.6-2L6.1,97.8l-0.6,2l11.6,9.5L17.6,107.6z M7.3,99.4L7.3,99.4l8.1-0.8l-1.7,5.9
		L7.3,99.4z"/>
	<path d="M22.5,92.7l-5.3-2.3l1.7-4c0.9-2.1,2-2.3,3.4-1.8l3.1,1.3l0.7-1.7L23,83c-1.6-0.7-3-0.6-3.9,1.1l0,0c0.5-1.8-0.3-3-2-3.8
		c-2.2-0.9-4.3,0-5.6,3.2l-2.3,5.3l12.7,5.4L22.5,92.7z M11.2,87.9l1.6-3.6c0.9-2.1,2.2-2.8,3.6-2.2c1.5,0.6,2.1,1.9,1.1,4.3
		L16,89.9L11.2,87.9z"/>
	<path d="M27.6,81.2l-2.2-2.9l3.5-6.2l3.6,0.5l1-1.8L18.6,69l-1,1.8l9.1,11.9L27.6,81.2z M19.5,70.8L19.5,70.8l8.1,1.1l-3,5.3
		L19.5,70.8z"/>
	<polygon points="38.5,63.8 28.8,56 28.8,55.9 43.7,57.3 45,55.7 34.3,47.1 33.2,48.4 42.2,55.6 42.1,55.6 28.5,54.2 26.7,56.5 
		37.5,65.1 	"/>
	<path d="M47.7,52.9l-1.4-3.4l5.1-5l3.3,1.5l1.5-1.4l-13.8-5.8l-1.5,1.5l5.5,14L47.7,52.9z M42.7,40.7L42.7,40.7l7.4,3.3l-4.4,4.3
		L42.7,40.7z"/>
	<polygon points="61.4,40.5 57.2,26.2 55.7,27.3 59.6,39.8 59.5,39.8 48.2,33.4 46.7,34.6 59.7,41.8 	"/>
	<polygon points="75.4,30.8 74.5,29.5 68.1,33.6 65.6,29.6 70.6,26.4 69.9,25.3 64.9,28.5 62.4,24.7 68.6,20.6 67.7,19.3 60,24.3 
		67.5,35.9 	"/>
	<path d="M82.6,27.2c2.5-1.2,3.3-3,3-4.6l0,0c0.4,0.9,0.8,1.8,1,2.4l1.5-0.7l-3-5.9l-5.9,3l0.6,1.2l4.3-2.2l0.2,0.4
		c0.9,1.9,0.1,4-2.3,5.2c-2.5,1.2-5.5,0.4-7-2.6c-1.5-3.1-0.5-6.1,2.1-7.4c2.2-1.1,4.5-0.8,5.5,1.2c0.1,0.2,0.2,0.4,0.3,0.7l1.5-0.7
		c-0.1-0.3-0.3-0.6-0.3-0.7c-1.4-2.8-4.5-3.4-7.6-1.8c-3.5,1.8-4.9,5.7-3,9.6C75.3,27.9,79.1,29,82.6,27.2z"/>
	<path d="M91.6,19.3l6.7-2.4l2.4,2.7l1.9-0.7l-10.2-11l-2,0.7l-0.8,15l1.7-0.6L91.6,19.3z M92,9.7L92,9.7l5.4,6.1l-5.8,2.1L92,9.7z"
		/>
	<path d="M106.4,18l-1.3-5.6l4.2-1c2.2-0.5,3.1,0.2,3.4,1.7l0.8,3.3l1.8-0.4l-0.8-3.3c-0.4-1.7-1.3-2.7-3.2-2.5l0,0
		c1.8-0.7,2.3-2.1,1.8-3.8c-0.5-2.3-2.6-3.4-5.9-2.6l-5.6,1.3l3.2,13.5L106.4,18z M107.5,5.2c2.3-0.5,3.6,0.1,3.9,1.6
		c0.4,1.6-0.3,2.8-2.8,3.4l-3.8,0.9l-1.2-5L107.5,5.2z"/>
	<rect x="121.4" y="8.2" transform="matrix(0.9939 -0.1102 0.1102 0.9939 -0.2116 13.6929)" width="4.7" height="1.2"/>
</g>
</svg>
