<svg xmlns="http://www.w3.org/2000/svg" viewBox="0 0 72.7 48.47"><title>Recurso 5</title><g id="Capa_2" data-name="Capa 2"><g id="Contacto"><path d="M65.88,48.47H6.82A6.83,6.83,0,0,1,0,41.65V6.82A6.83,6.83,0,0,1,6.82,0H65.88A6.83,6.83,0,0,1,72.7,6.82V41.65A6.83,6.83,0,0,1,65.88,48.47ZM6.82,4.54A2.28,2.28,0,0,0,4.54,6.82V41.65a2.27,2.27,0,0,0,2.28,2.27H65.88a2.27,2.27,0,0,0,2.28-2.27V6.82a2.28,2.28,0,0,0-2.28-2.28Z" style="fill:#010101"/><path d="M36.35,30.28a8.33,8.33,0,0,1-3.86-.94L1.22,13a2.27,2.27,0,0,1,2.1-4L34.58,25.31a4,4,0,0,0,3.55,0L69.38,9a2.27,2.27,0,0,1,2.1,4L40.22,29.34a8.53,8.53,0,0,1-3.87.94Z" style="fill:#010101"/></g></g></svg>