<svg xmlns="http://www.w3.org/2000/svg" viewBox="0 0 66.94 67"><title>Recurso 6</title><g id="Capa_2" data-name="Capa 2"><g id="Contacto"><path d="M57,9.73a33.49,33.49,0,0,0-47.19,0A32.91,32.91,0,0,0,0,33.19H0A33,33,0,0,0,4.08,48.89L.09,67l18.32-4.17a33.63,33.63,0,0,0,15,3.58h0a33.38,33.38,0,0,0,23.61-9.73A32.83,32.83,0,0,0,57,9.73ZM33.47,61.18h0A28.32,28.32,0,0,1,20,57.77l-.87-.47L7,60.07l2.65-12-.51-.88a28,28,0,0,1-3.88-14A28.23,28.23,0,0,1,53.35,13.43a27.82,27.82,0,0,1,8.36,19.78A28.15,28.15,0,0,1,33.47,61.18Z" style="fill:#010101"/><path d="M24.36,18.56H22.89a2.84,2.84,0,0,0-2,1,8.54,8.54,0,0,0-2.68,6.36c0,3.76,2.75,7.38,3.13,7.89s5.29,8.46,13.07,11.52c6.47,2.54,7.79,2,9.19,1.91s4.53-1.85,5.17-3.63a6.24,6.24,0,0,0,.44-3.63c-.19-.31-.7-.5-1.46-.89s-4.52-2.25-5.22-2.51-1.21-.38-1.72.38-2,2.53-2.47,3-.89.57-1.65.19a20.93,20.93,0,0,1-6.13-3.8A23.34,23.34,0,0,1,26.21,31c-.44-.76,0-1.17.34-1.55s.81-.81,1.19-1.26a5.25,5.25,0,0,0,.75-1.27,1.43,1.43,0,0,0-.07-1.34c-.19-.38-1.66-4.15-2.34-5.66h0C25.51,18.63,24.91,18.59,24.36,18.56Z" style="fill:#010101"/></g></g></svg>