<svg xmlns="http://www.w3.org/2000/svg" viewBox="0 0 304.46 288.93"><title>Recurso 7</title><g id="Capa_2" data-name="Capa 2"><g id="Somos_Bianco" data-name="Somos Bianco"><circle cx="83.05" cy="83.05" r="83.03" style="fill:#ec9587"/><path d="M63.27,141.11C27.64,128.37,8,91.81,19.53,59.6S69.4,11.56,105,24.3s55.25,49.3,43.73,81.51S98.9,153.85,63.27,141.11ZM103.1,29.71C70.45,18,35.39,32.31,24.94,61.53S32.56,124,65.21,135.7s67.71-2.6,78.15-31.83S135.75,41.38,103.1,29.71Z" style="fill:#fff"/><path d="M77.58,63.73A5.9,5.9,0,0,1,74.39,56a6.3,6.3,0,0,1,3.72-3.77A7.31,7.31,0,0,0,75.49,49c-4.41-2.9-11.11.68-15,8s-3.41,15.6,1,18.5,11.11-.68,15-8A22.53,22.53,0,0,0,78,63.79,3.56,3.56,0,0,1,77.58,63.73Z" style="fill:#fff"/><path d="M103.14,67.18a6.54,6.54,0,0,1,3-3.52c-1.1-3.32-3.24-5.61-6.13-5.92-5.25-.55-10.85,5.57-12.51,13.68S88.72,86.54,94,87.09c5,.52,10.18-4.93,12.15-12.35A5.9,5.9,0,0,1,103.14,67.18Z" style="fill:#fff"/><path d="M51.48,112.68l23.07,8.25c4.27,1.52,6.65-5.11,2.37-6.64L53.85,106c-4.27-1.52-6.65,5.11-2.37,6.64Z" style="fill:#fff"/><circle cx="221.43" cy="132.07" r="83.03"/><path d="M264.21,177.21c-27.1,26.42-68.56,28-92.44,3.5s-21.26-65.91,5.84-92.33,68.56-28,92.44-3.5S291.31,150.79,264.21,177.21ZM181.62,92.5c-24.83,24.2-27.4,62-5.74,84.19s59.49,20.61,84.32-3.6,27.4-62,5.74-84.2S206.45,68.29,181.62,92.5Z" style="fill:#fff"/><path d="M191.14,121.56c-3.73,2.21-4.16,7.72-1.52,13.32a6.19,6.19,0,0,1,8.45,9,4.21,4.21,0,0,1-.45.28c4,2.59,8.23,3.39,11.19,1.64,4.55-2.69,4.28-10.28-.61-17S195.68,118.87,191.14,121.56Z" style="fill:#fff"/><path d="M226.69,104.45c-6.55-5-14.14-5.51-16.94-1-1.8,2.89-1.16,7.11,1.27,11.11A6.17,6.17,0,0,1,220,122.8c5.59,2.87,11.19,2.61,13.51-1.1C236.29,117.22,233.25,109.5,226.69,104.45Z" style="fill:#fff"/><path d="M224.48,174.35c-2.83-5.15,4.73-3.7,6.18-3.8a3.53,3.53,0,0,0,3.09-1.74c1.46-3.12.77-9.35,4.59-10.42,1.63-.45,3.84,2.05,6,1.25,5.1-1.86,2.65-12.92,7.78-11.14a3.42,3.42,0,0,0,3.39-.87c3.8-4.45,2.69-12.83,5-17.82,1.87-4.08-4.19-7.69-6.08-3.56-1.6,3.49-2.52,13.43-6,12.24a3.43,3.43,0,0,0-3.39.88c-1.91,2.32-1.69,3.81-2.74,6.7-1.29,3.58-2.06,3.67-4.34,4.62-1.66.69-3-.14-4.74.93-2.82,1.76-3.61,5.61-4.42,8.43-1,3.33,1.6,2.07-.87,3.41-.87.46-3.92-.08-5,.08-1.76.25-4.61.53-6,2-3.37,3.56-.56,8.63,1.42,12.24,2.18,4,8.35.57,6.17-3.4Z" style="fill:#fff"/><circle cx="116.68" cy="205.89" r="83.03" style="fill:#de6030"/><path d="M81.71,219.47c5.66,13.94,15.15,20.34,30.14,22.36,12.34,1.67,24.41-.14,33.12-9.64,2.59-2.83-1.76-6.92-4.35-4.09-14.76,16.11-45.46,8.7-53.21-10.41-1.43-3.53-7.15-1.79-5.7,1.78Z" style="fill:#fff"/><path d="M103.08,257.23c-31.24-7.18-51.38-36-44.89-64.24s37.2-45.37,68.44-38.19S178,190.8,171.52,219,134.33,264.41,103.08,257.23Zm22.46-97.69c-28.63-6.58-56.71,8.91-62.6,34.54s12.6,51.82,41.23,58.41,56.72-8.91,62.61-34.54S154.17,166.12,125.54,159.54Z" style="fill:#fff"/><path d="M74.7,223.73c4.23,1.08,8.73-1.37,12-4a13.31,13.31,0,0,0,4.84-11.14c-.17-3.83-6.14-3.59-6,.26a7.37,7.37,0,0,1-2.77,6.39c-1.68,1.34-4.51,3.22-6.72,2.66-3.73-.95-5.06,4.86-1.34,5.81Z" style="fill:#fff"/><path d="M139.08,222.38c1.32,3.35,2.42,7.25,5.21,9.73a7.64,7.64,0,0,0,9.37.83c3.12-2.22,0-7.29-3.17-5.06-2.93,2.09-5.07-5.64-5.72-7.28-1.4-3.55-7.12-1.8-5.69,1.78Z" style="fill:#fff"/><path d="M104,186.22a3.69,3.69,0,0,1,4.27-3c.06,0,.1.06.16.07.34-3.46-.7-6.52-2.87-7.61-3-1.47-6.84,1.24-8.7,6.06s-1,9.92,2,11.4c2.19,1.09,4.89-.12,6.9-2.79A3.76,3.76,0,0,1,104,186.22Z" style="fill:#fff"/><path d="M98,204.06a19.71,19.71,0,1,1,23.62-14.79A19.72,19.72,0,0,1,98,204.06Zm7.74-33.67a14.84,14.84,0,1,0,11.14,17.79A14.86,14.86,0,0,0,105.7,170.39Z" style="fill:#fff"/><path d="M137.77,193.89a3.69,3.69,0,0,1,3.81-3c0-4.61-2.16-8.16-5.2-8.12-3.3,0-6.32,4.25-6.76,9.4s1.89,9.28,5.18,9.24c1.82,0,3.53-1.34,4.8-3.35A3.73,3.73,0,0,1,137.77,193.89Z" style="fill:#fff"/><path d="M131.75,211.83A19.71,19.71,0,1,1,155.37,197,19.72,19.72,0,0,1,131.75,211.83Zm7.74-33.67A14.84,14.84,0,1,0,150.62,196,14.86,14.86,0,0,0,139.49,178.16Z" style="fill:#fff"/><path d="M155.42,197.64a85.82,85.82,0,0,1,13.12-4.87c1.67-.42,5.68-1.78,7.47-1.07,2.72,1.09,2.05,3.55,2.25,6.22.28,3.82,6.25,3.59,6-.26-.43-5.71-.69-11.3-7.6-11.87-7.84-.65-16,3.12-23,6.16-3.49,1.51-1.75,7.23,1.78,5.69Z" style="fill:#fff"/><path d="M86.75,178.55C77.59,171,72.68,142.38,57,156.45c-2.87,2.57,1.5,6.64,4.34,4.09,6.21-5.57,10.67,7,13.06,11.24s4.54,8.08,8.24,11.12c3,2.43,7.06-1.91,4.09-4.35Z" style="fill:#fff"/></g></g></svg>