<svg xmlns="http://www.w3.org/2000/svg" viewBox="0 0 195.29 195.29"><title>Recurso 8</title><g id="Capa_2" data-name="Capa 2"><g id="Somos_Bianco" data-name="Somos Bianco"><circle cx="97.64" cy="97.64" r="97.64" style="fill:#5c85ab"/><path d="M177.42,97.81c0-40.23-36.21-72.95-80.71-72.95S16,57.58,16,97.81c0,35,27.52,64.27,64,71.25l.43-6.75c-33-6.65-57.69-33-57.69-64.5,0-36.5,33.18-66.19,74-66.19s74,29.69,74,66.19c0,26.19-21,50.86-45.75,61.58l-3.38,9.45C156.15,157.7,177.42,126.93,177.42,97.81Z" style="fill:#fff"/><path d="M134.56,100.68c2.83,4.11,5.54,9,10.07,11.53,4.17,2.29,9.7,1.86,12.94-1.78,3.53-4-2.3-9.86-5.86-5.86-3.32,3.74-8.61-6.06-10-8.08-3-4.36-10.19-.22-7.15,4.19Z" style="fill:#fff"/><path d="M87.08,83.85c0-4,3-7.26,6.59-7.26.12,0,.21.07.33.07C93.16,70.17,90,65,85.51,63.9c-6-1.46-12,5.15-13.41,14.79s2.41,18.63,8.44,20.1c4.48,1.09,8.93-2.29,11.5-8A7.06,7.06,0,0,1,87.08,83.85Z" style="fill:#fff"/><path d="M123.33,83.68a7,7,0,0,1,5.73-7.07c-1.89-8.47-7.39-14.06-13-12.71-6,1.47-9.81,10.47-8.43,20.1s7.37,16.25,13.41,14.79c3.32-.81,5.92-4,7.39-8.17A7,7,0,0,1,123.33,83.68Z" style="fill:#fff"/><path d="M128,125.43c-2.63,2.11-5.27,4.22-7.91,4.48,2.29,20.07.22,45.85-23.7,39.8-14.55-3.68-14.81-20.77-14.3-36-2.16-3.69-3.78-9.49-7.74-6C74.62,151,72.58,181,104.08,178.4,129.88,176.25,131.35,147.55,128,125.43Z" style="fill:#fff"/><path d="M96.69,134.94c.58,5.3,0,10.72.68,16s8.95,5.29,8.29,0-.3-10.72-.71-16Z" style="fill:#fff"/><path d="M56.06,114.58c12,17.1,26.81,22.8,47.72,20.87,17.22-1.58,33-7.77,41.8-23.33,2.63-4.65-4.52-8.83-7.15-4.18-15,26.37-58.79,25.9-75.22,2.46-3-4.33-10.22-.2-7.15,4.18Z" style="fill:#fff"/></g></g></svg>